<?xml version="1.0" encoding="utf-8"?>
<svg xmlns="http://www.w3.org/2000/svg" viewBox="0 0 100 100" width="500" height="500">
  <path fill="#c7ede6" d="M88.598,55.715c0.299-0.614,0.563-1.259,0.792-1.935c2.622-7.739-1.343-17.008-9.693-19.245c-0.903-11.338-8.87-19.115-17.867-20.442c-10.298-1.519-19.733,5.023-22.872,15.422c-3.784-1.34-7.471-1.177-10.945,0.853c-1.576,0.729-3.018,1.805-4.312,3.22c-1.9,2.077-3.134,4.7-3.637,7.465c-0.745,0.117-1.477,0.235-2.167,0.482c-4.023,1.443-6.562,4.413-7.258,8.886c-0.434,2.785,0.441,5.564,0.929,6.687c1.927,4.436,6.396,6.952,10.936,6.286c0.226-0.033,0.554,0.069,0.749,0.232c0.24,7.091,3.683,13.362,8.848,16.944c8.287,5.748,18.949,3.977,25.675-3.905c2.882,2.948,6.312,4.38,10.342,3.86c4.006-0.517,7.117-2.728,9.387-6.322c1.048,0.282,2.043,0.689,3.071,0.801c4.025,0.44,7.294-1.161,9.692-4.78c0.918-1.385,1.786-3.181,1.786-6.328C92.054,60.651,90.766,57.696,88.598,55.715z" />
  <path fill="#fff" d="M18.551 47.785H8.562c-.276 0-.5-.224-.5-.5s.224-.5.5-.5h9.989c.276 0 .5.224.5.5S18.828 47.785 18.551 47.785zM21.42 47.785h-1.439c-.276 0-.5-.224-.5-.5s.224-.5.5-.5h1.439c.276 0 .5.224.5.5S21.697 47.785 21.42 47.785zM25.459 47.785h-2.535c-.276 0-.5-.224-.5-.5s.224-.5.5-.5h2.535c.276 0 .5.224.5.5S25.735 47.785 25.459 47.785zM25.459 49.642h-9.577c-.276 0-.5-.224-.5-.5s.224-.5.5-.5h9.577c.276 0 .5.224.5.5S25.735 49.642 25.459 49.642zM14.158 49.642H13.58c-.276 0-.5-.224-.5-.5s.224-.5.5-.5h.578c.276 0 .5.224.5.5S14.434 49.642 14.158 49.642zM11.791 49.642h-1.45c-.276 0-.5-.224-.5-.5s.224-.5.5-.5h1.45c.276 0 .5.224.5.5S12.067 49.642 11.791 49.642zM20.888 45.928h-5.007c-.276 0-.5-.224-.5-.5s.224-.5.5-.5h5.007c.276 0 .5.224.5.5S21.165 45.928 20.888 45.928zM20.888 44.071h-1.252c-.276 0-.5-.224-.5-.5s.224-.5.5-.5h1.252c.276 0 .5.224.5.5S21.165 44.071 20.888 44.071zM17.633 51.5h-1.752c-.276 0-.5-.224-.5-.5s.224-.5.5-.5h1.752c.276 0 .5.224.5.5S17.91 51.5 17.633 51.5zM71.511 21.616h-9.989c-.276 0-.5-.224-.5-.5s.224-.5.5-.5h9.989c.276 0 .5.224.5.5S71.788 21.616 71.511 21.616zM74.38 21.616h-1.439c-.276 0-.5-.224-.5-.5s.224-.5.5-.5h1.439c.276 0 .5.224.5.5S74.657 21.616 74.38 21.616zM78.419 21.616h-2.535c-.276 0-.5-.224-.5-.5s.224-.5.5-.5h2.535c.276 0 .5.224.5.5S78.695 21.616 78.419 21.616zM76.401 17.902h-9.577c-.276 0-.5-.224-.5-.5s.224-.5.5-.5h9.577c.276 0 .5.224.5.5S76.677 17.902 76.401 17.902zM65.1 17.902h-.578c-.276 0-.5-.224-.5-.5s.224-.5.5-.5H65.1c.276 0 .5.224.5.5S65.377 17.902 65.1 17.902zM62.733 17.902h-1.45c-.276 0-.5-.224-.5-.5s.224-.5.5-.5h1.45c.276 0 .5.224.5.5S63.009 17.902 62.733 17.902zM73.848 19.758h-5.007c-.276 0-.5-.224-.5-.5s.224-.5.5-.5h5.007c.276 0 .5.224.5.5S74.125 19.758 73.848 19.758z" />
  <path fill="#fff" d="M73.848 17.902h-1.252c-.276 0-.5-.224-.5-.5s.224-.5.5-.5h1.252c.276 0 .5.224.5.5S74.125 17.902 73.848 17.902zM67.392 19.758h-1.751c-.276 0-.5-.224-.5-.5s.224-.5.5-.5h1.751c.276 0 .5.224.5.5S67.669 19.758 67.392 19.758z" />
  <path fill="#fdfcef" d="M83.067,57.901c1.876,0,3.502,0,3.526,0c2.101,0,3.805-1.667,3.805-3.724c0-1.794-1.297-3.292-3.023-3.645c0.02-0.157,0.033-0.316,0.033-0.478c0-2.13-1.764-3.857-3.941-3.857c-1.285,0-2.423,0.605-3.142,1.536c-0.184-2.371-2.348-4.2-4.88-3.897c-1.851,0.222-3.383,1.622-3.723,3.417c-0.109,0.576-0.098,1.134,0.011,1.659c-0.496-0.523-1.203-0.853-1.99-0.853c-1.44,0-2.616,1.097-2.709,2.484c-0.654-0.142-1.365-0.132-2.115,0.143c-1.432,0.526-2.452,1.846-2.512,3.342c-0.085,2.125,1.65,3.873,3.802,3.873c0.163,0,0.738,0,0.87,0h7.901 M76.616,57.901h0.358" />
  <path fill="#472b29" d="M86.592,58.4h-3.525c-0.276,0-0.5-0.224-0.5-0.5s0.224-0.5,0.5-0.5h3.525c1.822,0,3.306-1.446,3.306-3.224c0-1.517-1.104-2.844-2.624-3.154c-0.255-0.053-0.428-0.293-0.396-0.552c0.017-0.137,0.029-0.275,0.029-0.417c0-1.851-1.543-3.356-3.44-3.356c-1.087,0-2.088,0.489-2.747,1.342c-0.126,0.164-0.339,0.23-0.539,0.174c-0.197-0.06-0.339-0.234-0.354-0.44c-0.079-1.015-0.563-1.936-1.363-2.592c-0.824-0.678-1.871-0.979-2.959-0.849c-1.639,0.196-2.992,1.436-3.292,3.015c-0.094,0.491-0.09,0.982,0.01,1.462c0.046,0.219-0.06,0.441-0.257,0.545c-0.197,0.105-0.44,0.063-0.595-0.098c-0.428-0.449-1.006-0.697-1.628-0.697c-1.164,0-2.135,0.887-2.21,2.018c-0.01,0.146-0.082,0.278-0.198,0.366c-0.116,0.087-0.263,0.122-0.406,0.089c-0.634-0.137-1.236-0.098-1.836,0.124c-1.257,0.461-2.135,1.623-2.185,2.892c-0.035,0.871,0.281,1.7,0.89,2.334c0.632,0.657,1.488,1.02,2.412,1.02h8.771c0.276,0,0.5,0.224,0.5,0.5s-0.224,0.5-0.5,0.5H66.21c-1.181,0-2.323-0.483-3.133-1.327c-0.8-0.831-1.214-1.92-1.169-3.065c0.066-1.669,1.208-3.192,2.839-3.792c0.608-0.223,1.235-0.303,1.872-0.243c0.344-1.39,1.623-2.414,3.124-2.414c0.489,0,0.971,0.112,1.405,0.32c0.009-0.239,0.036-0.479,0.082-0.72c0.38-2.001,2.089-3.572,4.155-3.819c1.36-0.165,2.675,0.216,3.712,1.067c0.744,0.61,1.272,1.402,1.54,2.291c0.788-0.645,1.778-1.001,2.83-1.001c2.448,0,4.44,1.954,4.44,4.356c0,0.033-0.001,0.067-0.001,0.101c1.757,0.554,2.991,2.181,2.991,4.022C90.898,56.506,88.966,58.4,86.592,58.4z M76.974,58.4h-0.358c-0.276,0-0.5-0.224-0.5-0.5s0.224-0.5,0.5-0.5h0.358c0.276,0,0.5,0.224,0.5,0.5S77.251,58.4,76.974,58.4z" />
  <path fill="#472b29" d="M84.892 52.62c-.018 0-.036-.002-.055-.006-.135-.03-.22-.164-.189-.299.037-.165.094-.325.168-.477.604-1.221 2.267-1.672 3.708-1.003.126.058.181.206.122.331-.058.126-.208.179-.331.122-1.198-.552-2.565-.208-3.05.771-.058.116-.101.238-.129.365C85.11 52.541 85.006 52.62 84.892 52.62zM79.754 58.4h-1.103c-.276 0-.5-.224-.5-.5s.224-.5.5-.5h1.103c.276 0 .5.224.5.5S80.031 58.4 79.754 58.4z" />
  <path fill="#fbcd59" d="M75.455,34.638v1.772v28.999c0,3.018-2.469,5.488-5.488,5.488H39.41c-3.018,0-5.488-2.469-5.488-5.488V36.355v-1.717" />
  <path fill="#472b29" d="M69.967,71.597H39.41c-3.412,0-6.188-2.776-6.188-6.188V34.637c0-0.387,0.313-0.7,0.7-0.7s0.7,0.313,0.7,0.7v30.771c0,2.641,2.147,4.788,4.787,4.788h30.558c2.641,0,4.788-2.147,4.788-4.788V34.637c0-0.387,0.313-0.7,0.7-0.7s0.7,0.313,0.7,0.7v30.771C76.156,68.821,73.379,71.597,69.967,71.597z" />
  <path fill="#f1bc19" d="M71.9,45.186H37.478c-3.043,0-5.533-2.49-5.533-5.533v-8.97h45.489v8.97C77.433,42.696,74.943,45.186,71.9,45.186z" />
  <path fill="#472b29" d="M71.9,45.886H37.478c-3.437,0-6.233-2.797-6.233-6.233v-8.971c0-0.387,0.313-0.7,0.7-0.7h45.488c0.387,0,0.7,0.313,0.7,0.7v8.971C78.133,43.09,75.337,45.886,71.9,45.886z M32.645,31.382v8.271c0,2.665,2.168,4.833,4.833,4.833H71.9c2.665,0,4.833-2.168,4.833-4.833v-8.271H32.645z" />
  <path fill="#fdfcef" d="M60.248,54.086H48.47c-0.931,0-1.692-0.762-1.692-1.692v-0.571c0-0.931,0.762-1.692,1.692-1.692h11.778c0.931,0,1.692,0.762,1.692,1.692v0.571C61.941,53.324,61.179,54.086,60.248,54.086z" />
  <path fill="#472b29" d="M60.249,54.461H48.47c-1.14,0-2.067-0.928-2.067-2.067v-0.57c0-1.14,0.928-2.067,2.067-2.067h11.778c1.14,0,2.067,0.928,2.067,2.067v0.57C62.316,53.533,61.388,54.461,60.249,54.461z M48.47,50.506c-0.727,0-1.317,0.591-1.317,1.317v0.57c0,0.727,0.591,1.317,1.317,1.317h11.778c0.727,0,1.317-0.591,1.317-1.317v-0.57c0-0.727-0.591-1.317-1.317-1.317H48.47z" />
  <path fill="#ee3e54" d="M38.945 45.428L38.945 51.032 40.923 49.384 42.901 51.032 42.901 45.428z" />
  <path fill="#472b29" d="M42.901 51.407c-.086 0-.171-.029-.24-.087l-1.737-1.448-1.738 1.448c-.113.093-.269.112-.399.052-.132-.062-.216-.194-.216-.34v-5.604c0-.207.168-.375.375-.375h3.956c.207 0 .375.168.375.375v5.604c0 .146-.084.278-.216.34C43.009 51.395 42.955 51.407 42.901 51.407zM39.32 45.803v4.428l1.363-1.136c.139-.115.342-.115.48 0l1.362 1.136v-4.428H39.32zM66.226 33.365H34.582c-.207 0-.375-.168-.375-.375s.168-.375.375-.375h31.645c.207 0 .375.168.375.375S66.433 33.365 66.226 33.365zM70.84 33.365h-2.637c-.207 0-.375-.168-.375-.375s.168-.375.375-.375h2.637c.207 0 .375.168.375.375S71.047 33.365 70.84 33.365zM74.796 33.365h-2.638c-.207 0-.375-.168-.375-.375s.168-.375.375-.375h2.638c.207 0 .375.168.375.375S75.004 33.365 74.796 33.365zM54.689 71.272c-.207 0-.375-.168-.375-.375V54.416c0-.207.168-.375.375-.375s.375.168.375.375v16.481C55.064 71.104 54.896 71.272 54.689 71.272zM54.689 50.175c-.207 0-.375-.168-.375-.375v-3.955c0-.207.168-.375.375-.375s.375.168.375.375V49.8C55.064 50.007 54.896 50.175 54.689 50.175z" />
  <path fill="#fdfcee" d="M73.478 54.415000000000006A9.613 9.613 0 1 0 73.478 73.641A9.613 9.613 0 1 0 73.478 54.415000000000006Z" />
  <path fill="#472b29" d="M73.477,74.34c-5.687,0-10.312-4.626-10.312-10.312s4.626-10.312,10.312-10.312s10.313,4.626,10.313,10.312S79.164,74.34,73.477,74.34z M73.477,55.116c-4.914,0-8.912,3.998-8.912,8.912s3.998,8.912,8.912,8.912c4.915,0,8.913-3.998,8.913-8.912S78.392,55.116,73.477,55.116z" />
  <path fill="#cbc9bc" d="M69 62.806999999999995A1.008 1.008 0 1 0 69 64.823A1.008 1.008 0 1 0 69 62.806999999999995Z" />
  <path fill="#472b29" d="M69.001,65.198c-0.763,0-1.384-0.62-1.384-1.383s0.621-1.384,1.384-1.384s1.383,0.621,1.383,1.384S69.763,65.198,69.001,65.198z M69.001,63.181c-0.35,0-0.634,0.284-0.634,0.634c0,0.349,0.284,0.633,0.634,0.633c0.349,0,0.633-0.284,0.633-0.633C69.633,63.465,69.349,63.181,69.001,63.181z" />
  <path fill="#cbc9bc" d="M73.492 62.806999999999995A1.008 1.008 0 1 0 73.492 64.823A1.008 1.008 0 1 0 73.492 62.806999999999995Z" />
  <path fill="#472b29" d="M73.492,65.198c-0.763,0-1.383-0.62-1.383-1.383s0.62-1.384,1.383-1.384s1.384,0.621,1.384,1.384S74.254,65.198,73.492,65.198z M73.492,63.181c-0.349,0-0.633,0.284-0.633,0.634c0,0.349,0.284,0.633,0.633,0.633c0.35,0,0.634-0.284,0.634-0.633C74.126,63.465,73.841,63.181,73.492,63.181z" />
  <path fill="#cbc9bc" d="M77.984 62.806999999999995A1.008 1.008 0 1 0 77.984 64.823A1.008 1.008 0 1 0 77.984 62.806999999999995Z" />
  <path fill="#472b29" d="M77.984,65.198c-0.763,0-1.383-0.62-1.383-1.383s0.62-1.384,1.383-1.384s1.383,0.621,1.383,1.384S78.747,65.198,77.984,65.198z M77.984,63.181c-0.349,0-0.633,0.284-0.633,0.634c0,0.349,0.284,0.633,0.633,0.633s0.633-0.284,0.633-0.633C78.617,63.465,78.333,63.181,77.984,63.181z" />
  <path fill="#fdfcef" d="M36.692,73.455c0,0,9.945,0,10.006,0c2.297,0,4.158-1.862,4.158-4.159c0-2.004-1.417-3.676-3.304-4.07c0.022-0.175,0.037-0.353,0.037-0.534c0-2.379-1.928-4.307-4.307-4.307c-1.404,0-2.648,0.675-3.434,1.716c-0.201-2.648-2.566-4.691-5.333-4.352c-2.023,0.247-3.697,1.812-4.069,3.816c-0.119,0.643-0.107,1.267,0.012,1.852c-0.542-0.584-1.315-0.952-2.175-0.952c-1.574,0-2.859,1.226-2.96,2.774c-0.715-0.158-1.492-0.148-2.311,0.16c-1.565,0.587-2.68,2.061-2.745,3.732c-0.093,2.373,1.803,4.325,4.155,4.325c0.178,0,0.806,0,0.951,0h8.635" />
  <path fill="#472b29" d="M46.698,73.955H36.692c-0.276,0-0.5-0.224-0.5-0.5s0.224-0.5,0.5-0.5h10.006c2.018,0,3.658-1.641,3.658-3.658c0-1.723-1.223-3.229-2.906-3.581c-0.254-0.053-0.426-0.292-0.394-0.55c0.019-0.155,0.032-0.312,0.032-0.474c0-2.099-1.708-3.807-3.807-3.807c-1.2,0-2.307,0.553-3.035,1.517c-0.125,0.165-0.341,0.237-0.539,0.178c-0.2-0.059-0.342-0.234-0.358-0.441c-0.087-1.151-0.65-2.232-1.547-2.967c-0.904-0.742-2.046-1.066-3.228-0.927c-1.811,0.222-3.307,1.624-3.639,3.41c-0.104,0.559-0.1,1.117,0.012,1.662c0.044,0.22-0.062,0.442-0.262,0.544c-0.197,0.105-0.442,0.061-0.595-0.104c-0.475-0.511-1.117-0.792-1.809-0.792c-1.296,0-2.377,1.013-2.462,2.307c-0.01,0.145-0.082,0.279-0.198,0.366c-0.118,0.089-0.271,0.118-0.408,0.089c-0.703-0.154-1.366-0.108-2.027,0.14c-1.392,0.522-2.365,1.842-2.421,3.283c-0.04,1.007,0.322,1.959,1.018,2.683c0.696,0.725,1.633,1.123,2.638,1.123h9.586c0.276,0,0.5,0.224,0.5,0.5s-0.224,0.5-0.5,0.5h-9.586c-1.279,0-2.472-0.508-3.358-1.43c-0.886-0.922-1.347-2.134-1.297-3.415c0.072-1.839,1.306-3.519,3.069-4.18c0.671-0.251,1.364-0.34,2.066-0.267c0.353-1.551,1.745-2.699,3.381-2.699c0.553,0,1.095,0.135,1.58,0.384c0.006-0.291,0.036-0.584,0.091-0.875c0.41-2.212,2.261-3.947,4.5-4.221c1.453-0.177,2.864,0.23,3.982,1.146c0.835,0.684,1.437,1.612,1.728,2.639c0.861-0.74,1.954-1.151,3.118-1.151c2.65,0,4.807,2.156,4.807,4.807c0,0.053-0.001,0.104-0.003,0.157c1.919,0.599,3.271,2.403,3.271,4.447C51.356,71.865,49.266,73.955,46.698,73.955z" />
  <path fill="#fdfcef" d="M34.282,64.294c-1.538-0.101-2.862,0.961-2.957,2.373c-0.012,0.175-0.004,0.348,0.022,0.516c-0.297-0.335-0.736-0.562-1.24-0.596c-0.923-0.061-1.72,0.549-1.835,1.378c-0.168-0.046-0.343-0.077-0.524-0.089c-1.346-0.088-2.505,0.841-2.588,2.076" />
  <path fill="#472b29" d="M25.159,70.202c-0.006,0-0.011,0-0.017-0.001c-0.138-0.009-0.242-0.128-0.232-0.266c0.092-1.369,1.347-2.427,2.854-2.309c0.106,0.007,0.213,0.021,0.318,0.039c0.238-0.781,1.013-1.333,1.9-1.333c0.046,0,0.093,0.001,0.141,0.005c0.347,0.022,0.672,0.125,0.954,0.297c0.112-1.539,1.557-2.694,3.222-2.589c0.138,0.009,0.242,0.128,0.232,0.266c-0.008,0.132-0.118,0.233-0.249,0.233c-0.005,0-0.011,0-0.017-0.001c-1.401-0.079-2.605,0.868-2.691,2.14c-0.01,0.154-0.003,0.31,0.02,0.462c0.017,0.109-0.041,0.217-0.142,0.264c-0.098,0.046-0.219,0.022-0.293-0.062c-0.263-0.298-0.652-0.484-1.069-0.512c-0.77-0.041-1.473,0.459-1.57,1.163c-0.011,0.071-0.051,0.135-0.11,0.175c-0.061,0.04-0.134,0.051-0.203,0.032c-0.155-0.042-0.315-0.069-0.477-0.081c-1.216-0.062-2.247,0.749-2.321,1.844C25.399,70.1,25.29,70.202,25.159,70.202z" />
  <path fill="#fdfcef" d="M48.382,65.714c-1.445-0.681-3.117-0.199-3.733,1.078c-0.077,0.159-0.133,0.322-0.171,0.488" />
  <path fill="#472b29" d="M44.477,67.529c-0.019,0-0.037-0.002-0.056-0.006c-0.135-0.031-0.219-0.165-0.188-0.3c0.043-0.187,0.106-0.368,0.189-0.54c0.676-1.398,2.499-1.933,4.065-1.196c0.125,0.06,0.179,0.208,0.12,0.333c-0.06,0.126-0.21,0.176-0.333,0.12c-1.319-0.622-2.846-0.192-3.401,0.96c-0.067,0.139-0.118,0.285-0.152,0.435C44.694,67.451,44.591,67.529,44.477,67.529z" />
</svg>