<?xml version="1.0" encoding="utf-8"?>
<svg xmlns="http://www.w3.org/2000/svg" viewBox="0 0 100 100" width="500" height="500">
  <g id="button_data_base">
    <path fill="#c7ede6" d="M88.473,56.124c0.299-0.614,0.563-1.259,0.792-1.935c2.622-7.739-1.343-17.008-9.693-19.245 c-0.903-11.338-8.87-19.115-17.867-20.442c-10.298-1.519-19.733,5.023-22.872,15.422c-3.784-1.34-7.471-1.177-10.945,0.853 c-1.576,0.729-3.018,1.805-4.312,3.22c-1.9,2.077-3.134,4.7-3.637,7.465c-0.745,0.117-1.477,0.235-2.167,0.482 c-4.023,1.443-6.562,4.413-7.258,8.886c-0.434,2.785,0.441,5.564,0.929,6.687c1.927,4.436,6.396,6.952,10.936,6.286 c0.226-0.033,0.554,0.069,0.749,0.232c0.24,7.091,3.683,13.362,8.848,16.944c8.287,5.748,18.949,3.977,25.675-3.905 c2.882,2.948,6.312,4.38,10.342,3.86c4.006-0.517,7.117-2.728,9.387-6.322c1.048,0.282,2.043,0.689,3.071,0.801 c4.025,0.44,7.294-1.161,9.692-4.78c0.918-1.385,1.786-3.181,1.786-6.328C91.929,61.06,90.641,58.105,88.473,56.124z" />
    <path fill="#fdfcef" d="M76.628,49.522c0,0,11.643,0,11.714,0c2.689,0,4.868-2.18,4.868-4.869c0-2.346-1.659-4.303-3.868-4.765 c0.025-0.205,0.043-0.413,0.043-0.625c0-2.785-2.257-5.042-5.042-5.042c-1.644,0-3.1,0.791-4.02,2.008 c-0.235-3.1-3.004-5.491-6.244-5.095c-2.369,0.29-4.328,2.121-4.764,4.467c-0.14,0.752-0.125,1.483,0.014,2.168 c-0.635-0.684-1.539-1.115-2.546-1.115c-1.843,0-3.347,1.435-3.466,3.248c-0.837-0.185-1.747-0.173-2.706,0.187 c-1.832,0.688-3.137,2.413-3.214,4.369c-0.108,2.778,2.111,5.064,4.864,5.064c0.209,0,0.944,0,1.114,0h10.109" />
    <path fill="#472b29" d="M88.341,50.022H76.627c-0.276,0-0.5-0.224-0.5-0.5s0.224-0.5,0.5-0.5h11.714 c2.408,0,4.368-1.96,4.368-4.369c0-2.057-1.46-3.855-3.471-4.275c-0.255-0.053-0.427-0.294-0.394-0.553 c0.023-0.185,0.039-0.371,0.039-0.562c0-2.505-2.037-4.542-4.542-4.542c-1.432,0-2.752,0.66-3.622,1.81 c-0.125,0.166-0.343,0.237-0.539,0.178c-0.2-0.059-0.342-0.234-0.358-0.441c-0.104-1.371-0.774-2.659-1.841-3.533 c-1.077-0.883-2.441-1.274-3.844-1.104c-2.156,0.264-3.938,1.935-4.333,4.063c-0.123,0.664-0.119,1.33,0.013,1.978 c0.044,0.22-0.062,0.442-0.262,0.544c-0.197,0.103-0.442,0.061-0.595-0.104c-0.571-0.616-1.346-0.955-2.18-0.955 c-1.562,0-2.864,1.221-2.967,2.78c-0.01,0.146-0.082,0.28-0.199,0.367c-0.117,0.087-0.267,0.119-0.408,0.088 c-0.834-0.184-1.628-0.13-2.421,0.167c-1.661,0.624-2.823,2.199-2.89,3.92c-0.047,1.202,0.385,2.339,1.216,3.204 s1.949,1.34,3.148,1.34h11.223c0.276,0,0.5,0.224,0.5,0.5s-0.224,0.5-0.5,0.5H62.261c-1.474,0-2.848-0.585-3.869-1.647 c-1.021-1.062-1.553-2.459-1.495-3.936c0.083-2.118,1.505-4.055,3.538-4.818c0.796-0.299,1.62-0.398,2.456-0.297 c0.377-1.815,1.99-3.168,3.891-3.168c0.681,0,1.347,0.178,1.935,0.506c-0.001-0.383,0.035-0.768,0.106-1.151 c0.474-2.552,2.609-4.556,5.194-4.872c1.675-0.207,3.308,0.265,4.599,1.323c0.999,0.819,1.708,1.941,2.029,3.178 c1.008-0.911,2.31-1.418,3.697-1.418c3.056,0,5.542,2.486,5.542,5.542c0,0.083-0.002,0.165-0.007,0.246 c2.245,0.671,3.832,2.767,3.832,5.144C93.709,47.614,91.301,50.022,88.341,50.022z" />
    <path fill="#fdfcef" d="M73.806,38.798c-1.801-0.118-3.351,1.126-3.462,2.778c-0.014,0.205-0.005,0.407,0.025,0.604 c-0.347-0.392-0.862-0.659-1.452-0.697c-1.08-0.071-2.013,0.643-2.149,1.613c-0.197-0.054-0.401-0.09-0.614-0.104 c-1.576-0.103-2.932,0.985-3.029,2.431" />
    <path fill="#472b29" d="M63.126,45.672c-0.005,0-0.011,0-0.017,0c-0.138-0.009-0.242-0.128-0.232-0.266 c0.105-1.581,1.563-2.778,3.295-2.664c0.134,0.009,0.27,0.026,0.406,0.053c0.273-0.964,1.255-1.63,2.356-1.562 c0.416,0.027,0.817,0.162,1.157,0.382c0.001-0.019,0.002-0.037,0.004-0.056c0.118-1.787,1.766-3.136,3.728-3.011 c0.138,0.009,0.242,0.128,0.232,0.266c-0.008,0.137-0.109,0.248-0.266,0.233c-1.66-0.115-3.095,1.033-3.196,2.545 c-0.012,0.185-0.004,0.37,0.023,0.549c0.017,0.109-0.04,0.217-0.141,0.264c-0.102,0.047-0.221,0.023-0.294-0.06 c-0.316-0.357-0.783-0.581-1.281-0.614c-0.944-0.065-1.768,0.553-1.884,1.398c-0.011,0.071-0.051,0.135-0.11,0.174 s-0.134,0.052-0.203,0.033c-0.192-0.052-0.377-0.083-0.564-0.096c-1.466-0.098-2.677,0.892-2.765,2.198 C63.366,45.571,63.256,45.672,63.126,45.672z" />
    <path fill="#fdfcef" d="M90.313,40.46c-1.692-0.798-3.649-0.233-4.371,1.262c-0.09,0.186-0.156,0.377-0.2,0.571" />
    <path fill="#472b29" d="M85.742,42.542c-0.018,0-0.036-0.002-0.055-0.006c-0.135-0.03-0.22-0.164-0.189-0.299 c0.049-0.215,0.123-0.425,0.22-0.625c0.778-1.615,2.891-2.235,4.702-1.379c0.125,0.059,0.179,0.208,0.12,0.333 c-0.06,0.125-0.21,0.178-0.333,0.12c-1.569-0.738-3.378-0.225-4.039,1.145c-0.081,0.166-0.142,0.34-0.182,0.518 C85.959,42.464,85.856,42.542,85.742,42.542z" />
    <g>
      <path fill="#fff" d="M18.427,48.194H8.438c-0.276,0-0.5-0.224-0.5-0.5s0.224-0.5,0.5-0.5h9.989c0.276,0,0.5,0.224,0.5,0.5 S18.704,48.194,18.427,48.194z" />
      <path fill="#fff" d="M21.296,48.194h-1.439c-0.276,0-0.5-0.224-0.5-0.5s0.224-0.5,0.5-0.5h1.439c0.276,0,0.5,0.224,0.5,0.5 S21.573,48.194,21.296,48.194z" />
      <path fill="#fff" d="M25.334,48.194h-2.535c-0.276,0-0.5-0.224-0.5-0.5s0.224-0.5,0.5-0.5h2.535c0.276,0,0.5,0.224,0.5,0.5 S25.611,48.194,25.334,48.194z" />
      <path fill="#fff" d="M25.334,50.052h-9.577c-0.276,0-0.5-0.224-0.5-0.5s0.224-0.5,0.5-0.5h9.577c0.276,0,0.5,0.224,0.5,0.5 S25.611,50.052,25.334,50.052z" />
      <path fill="#fff" d="M14.033,50.052h-0.577c-0.276,0-0.5-0.224-0.5-0.5s0.224-0.5,0.5-0.5h0.577c0.276,0,0.5,0.224,0.5,0.5 S14.309,50.052,14.033,50.052z" />
      <path fill="#fff" d="M11.666,50.052h-1.45c-0.276,0-0.5-0.224-0.5-0.5s0.224-0.5,0.5-0.5h1.45c0.276,0,0.5,0.224,0.5,0.5 S11.942,50.052,11.666,50.052z" />
      <path fill="#fff" d="M20.764,46.337h-5.007c-0.276,0-0.5-0.224-0.5-0.5s0.224-0.5,0.5-0.5h5.007c0.276,0,0.5,0.224,0.5,0.5 S21.041,46.337,20.764,46.337z" />
      <path fill="#fff" d="M20.764,44.48h-1.252c-0.276,0-0.5-0.224-0.5-0.5s0.224-0.5,0.5-0.5h1.252c0.276,0,0.5,0.224,0.5,0.5 S21.041,44.48,20.764,44.48z" />
      <path fill="#fff" d="M17.509,51.909h-1.752c-0.276,0-0.5-0.224-0.5-0.5s0.224-0.5,0.5-0.5h1.752c0.276,0,0.5,0.224,0.5,0.5 S17.786,51.909,17.509,51.909z" />
    </g>
    <g>
      <path fill="#fff" d="M71.387,22.025h-9.989c-0.276,0-0.5-0.224-0.5-0.5s0.224-0.5,0.5-0.5h9.989c0.276,0,0.5,0.224,0.5,0.5 S71.664,22.025,71.387,22.025z" />
      <path fill="#fff" d="M74.256,22.025h-1.44c-0.276,0-0.5-0.224-0.5-0.5s0.224-0.5,0.5-0.5h1.44c0.276,0,0.5,0.224,0.5,0.5 S74.533,22.025,74.256,22.025z" />
      <path fill="#fff" d="M78.294,22.025h-2.536c-0.276,0-0.5-0.224-0.5-0.5s0.224-0.5,0.5-0.5h2.536c0.276,0,0.5,0.224,0.5,0.5 S78.571,22.025,78.294,22.025z" />
      <path fill="#fff" d="M76.277,18.31H66.7c-0.276,0-0.5-0.224-0.5-0.5s0.224-0.5,0.5-0.5h9.577c0.276,0,0.5,0.224,0.5,0.5 S76.553,18.31,76.277,18.31z" />
      <path fill="#fff" d="M64.975,18.31h-0.577c-0.276,0-0.5-0.224-0.5-0.5s0.224-0.5,0.5-0.5h0.577c0.276,0,0.5,0.224,0.5,0.5 S65.251,18.31,64.975,18.31z" />
      <path fill="#fff" d="M62.608,18.31h-1.45c-0.276,0-0.5-0.224-0.5-0.5s0.224-0.5,0.5-0.5h1.45c0.276,0,0.5,0.224,0.5,0.5 S62.884,18.31,62.608,18.31z" />
      <path fill="#fff" d="M73.724,20.168h-5.007c-0.276,0-0.5-0.224-0.5-0.5s0.224-0.5,0.5-0.5h5.007c0.276,0,0.5,0.224,0.5,0.5 S74.001,20.168,73.724,20.168z" />
      <path fill="#fff" d="M73.724,18.31h-1.252c-0.276,0-0.5-0.224-0.5-0.5s0.224-0.5,0.5-0.5h1.252c0.276,0,0.5,0.224,0.5,0.5 S74.001,18.31,73.724,18.31z" />
      <path fill="#fff" d="M67.268,20.168h-1.752c-0.276,0-0.5-0.224-0.5-0.5s0.224-0.5,0.5-0.5h1.752c0.276,0,0.5,0.224,0.5,0.5 S67.544,20.168,67.268,20.168z" />
    </g>
    <g>
      <path fill="#8889b9" d="M65.951,73.023H36.416c-3.766,0-6.847-3.081-6.847-6.847V36.641c0-3.766,3.081-6.847,6.847-6.847h29.535 c3.766,0,6.847,3.081,6.847,6.847v29.535C72.799,69.942,69.717,73.023,65.951,73.023z" />
      <path fill="#472b29" d="M65.952,73.723H36.417c-4.162,0-7.548-3.386-7.548-7.547V36.641c0-4.162,3.386-7.547,7.548-7.547h29.535 c4.161,0,7.547,3.386,7.547,7.547v29.535C73.499,70.338,70.113,73.723,65.952,73.723z M36.417,30.494 c-3.39,0-6.147,2.757-6.147,6.147v29.535c0,3.39,2.758,6.147,6.147,6.147h29.535c3.39,0,6.146-2.757,6.146-6.147V36.641 c0-3.39-2.757-6.147-6.146-6.147H36.417z" />
      <path fill="#fdfcee" d="M64.162,69.936H38.206c-3.052,0-5.549-2.497-5.549-5.549V38.431c0-3.052,2.497-5.549,5.549-5.549h25.956 c3.052,0,5.549,2.497,5.549,5.549v25.956C69.711,67.439,67.214,69.936,64.162,69.936z" />
      <path fill="#472b29" d="M64.08,70.286H38.288c-3.298,0-5.98-2.683-5.98-5.981V38.513c0-3.298,2.683-5.981,5.98-5.981h24.562 c0.193,0,0.35,0.157,0.35,0.35s-0.156,0.35-0.35,0.35H38.288c-2.912,0-5.281,2.369-5.281,5.281v25.792 c0,2.912,2.369,5.281,5.281,5.281H64.08c2.912,0,5.281-2.369,5.281-5.281V50.036c0-0.193,0.156-0.35,0.35-0.35 s0.35,0.157,0.35,0.35v14.268C70.06,67.602,67.377,70.286,64.08,70.286z" />
      <path fill="#472b29" d="M69.71,48.328c-0.193,0-0.35-0.157-0.35-0.35v-2.745c0-0.193,0.156-0.35,0.35-0.35s0.35,0.157,0.35,0.35 v2.745C70.06,48.171,69.904,48.328,69.71,48.328z" />
      <g>
        <path fill="#472b29" d="M69.71,44.211c-0.193,0-0.35-0.157-0.35-0.35v-1.373c0-0.193,0.156-0.35,0.35-0.35s0.35,0.157,0.35,0.35 v1.373C70.06,44.054,69.904,44.211,69.71,44.211z" />
      </g>
      <g>
        <path fill="#8889b9" d="M59.46,55.553c0-1.331-3.714-2.41-8.296-2.41s-8.296,1.079-8.296,2.41v4.548 c0,1.331,3.714,2.41,8.296,2.41c4.582,0,8.296-1.079,8.296-2.41L59.46,55.553L59.46,55.553z" />
        <path fill="#472b29" d="M51.164,62.885c-4.31,0-8.672-0.957-8.672-2.785v-4.547c0-1.828,4.362-2.785,8.672-2.785 c4.309,0,8.671,0.957,8.671,2.785V60.1C59.834,61.929,55.472,62.885,51.164,62.885z M51.164,53.518 c-4.908,0-7.922,1.185-7.922,2.035V60.1c0,0.85,3.014,2.035,7.922,2.035c4.907,0,7.921-1.185,7.921-2.035v-4.547 C59.084,54.703,56.071,53.518,51.164,53.518z" />
        <ellipse cx="51.163" cy="55.553" fill="#a1a1ca" rx="8.296" ry="2.41" />
        <path fill="#472b29" d="M51.164,58.213c-4.144,0-8.547-0.932-8.547-2.66s4.403-2.66,8.547-2.66c4.143,0,8.546,0.932,8.546,2.66 S55.306,58.213,51.164,58.213z M51.164,53.393c-4.742,0-8.047,1.138-8.047,2.16s3.305,2.16,8.047,2.16 c4.741,0,8.046-1.138,8.046-2.16S55.905,53.393,51.164,53.393z" />
        <path fill="#8889b9" d="M59.46,48.928c0-1.331-3.714-2.41-8.296-2.41s-8.296,1.079-8.296,2.41v4.548 c0,1.331,3.714,2.41,8.296,2.41c4.582,0,8.296-1.079,8.296-2.41L59.46,48.928L59.46,48.928z" />
        <path fill="#472b29" d="M51.164,56.26c-4.31,0-8.672-0.957-8.672-2.784v-4.548c0-1.828,4.362-2.785,8.672-2.785 c4.309,0,8.671,0.957,8.671,2.785v4.548C59.834,55.303,55.472,56.26,51.164,56.26z M51.164,46.893 c-4.908,0-7.922,1.185-7.922,2.035v4.548c0,0.85,3.014,2.034,7.922,2.034c4.907,0,7.921-1.185,7.921-2.034v-4.548 C59.084,48.078,56.071,46.893,51.164,46.893z" />
        <path fill="#a1a1ca" d="M55.981,50.89c-1.358,0.282-3.021,0.448-4.817,0.448c-4.582,0-8.296-1.079-8.296-2.41 c0-1.331,3.714-2.41,8.296-2.41s8.296,1.079,8.296,2.41c0,0.499-0.522,0.963-1.417,1.347" />
        <path fill="#472b29" d="M51.164,51.587c-4.144,0-8.547-0.932-8.547-2.66s4.403-2.66,8.547-2.66c4.143,0,8.546,0.932,8.546,2.66 c0,0.599-0.527,1.13-1.568,1.577c-0.127,0.055-0.274-0.003-0.328-0.131c-0.055-0.127,0.004-0.274,0.131-0.328 c0.816-0.351,1.266-0.748,1.266-1.118c0-1.021-3.305-2.16-8.046-2.16c-4.742,0-8.047,1.138-8.047,2.16s3.305,2.16,8.047,2.16 c1.725,0,3.373-0.153,4.767-0.442c0.132-0.032,0.268,0.059,0.296,0.194c0.027,0.135-0.059,0.268-0.194,0.295 C54.606,51.431,52.922,51.587,51.164,51.587z" />
        <path fill="#472b29" d="M56.746,50.96c-0.111,0-0.212-0.074-0.242-0.186c-0.035-0.134,0.045-0.271,0.179-0.306l0.197-0.054 c0.134-0.036,0.271,0.041,0.309,0.173c0.037,0.133-0.041,0.271-0.174,0.308l-0.205,0.056 C56.788,50.958,56.766,50.96,56.746,50.96z" />
        <g>
          <path fill="#8889b9" d="M59.46,42.717c0-1.331-3.714-2.41-8.296-2.41s-8.296,1.079-8.296,2.41v4.548 c0,1.331,3.714,2.41,8.296,2.41c4.582,0,8.296-1.079,8.296-2.41L59.46,42.717L59.46,42.717z" />
          <path fill="#472b29" d="M51.164,50.049c-4.31,0-8.672-0.957-8.672-2.785v-4.547c0-1.828,4.362-2.785,8.672-2.785 c4.309,0,8.671,0.957,8.671,2.785v4.547C59.834,49.092,55.472,50.049,51.164,50.049z M51.164,40.682 c-4.908,0-7.922,1.185-7.922,2.035v4.547c0,0.85,3.014,2.035,7.922,2.035c4.907,0,7.921-1.185,7.921-2.035v-4.547 C59.084,41.867,56.071,40.682,51.164,40.682z" />
        </g>
        <g>
          <path fill="#a1a1ca" d="M43.938,43.902c-0.682-0.35-1.071-0.754-1.071-1.185c0-1.331,3.714-2.41,8.296-2.41 s8.296,1.079,8.296,2.41s-3.714,2.41-8.296,2.41c-2.232,0-4.258-0.256-5.749-0.672" />
          <path fill="#472b29" d="M51.164,45.376c-2.177,0-4.242-0.242-5.816-0.682c-0.133-0.037-0.211-0.175-0.174-0.308 c0.038-0.133,0.176-0.212,0.309-0.173c1.531,0.428,3.549,0.663,5.682,0.663c4.741,0,8.046-1.138,8.046-2.16 s-3.305-2.16-8.046-2.16c-4.742,0-8.047,1.138-8.047,2.16c0,0.312,0.332,0.653,0.936,0.962 c0.123,0.063,0.171,0.214,0.108,0.337c-0.064,0.123-0.215,0.168-0.337,0.108c-0.801-0.411-1.207-0.885-1.207-1.408 c0-1.728,4.403-2.66,8.547-2.66c4.143,0,8.546,0.932,8.546,2.66S55.306,45.376,51.164,45.376z" />
        </g>
        <path fill="#472b29" d="M44.889,44.543c-0.026,0-0.053-0.004-0.079-0.013l-0.146-0.051c-0.13-0.047-0.197-0.19-0.15-0.32 c0.048-0.13,0.189-0.197,0.32-0.15l0.134,0.046c0.131,0.044,0.202,0.186,0.158,0.316 C45.091,44.477,44.994,44.543,44.889,44.543z" />
      </g>
    </g>
    <g>
      <path fill="#fdfcef" d="M40.612,75.779c1.876,0,3.502,0,3.526,0c2.101,0,3.805-1.667,3.805-3.724c0-1.794-1.297-3.292-3.023-3.645 c0.02-0.157,0.033-0.316,0.033-0.478c0-2.13-1.764-3.857-3.941-3.857c-1.285,0-2.423,0.605-3.142,1.536 c-0.184-2.371-2.348-4.2-4.88-3.897c-1.851,0.222-3.383,1.622-3.723,3.417c-0.109,0.576-0.098,1.134,0.011,1.659 c-0.496-0.523-1.203-0.853-1.99-0.853c-1.44,0-2.616,1.097-2.709,2.484c-0.654-0.142-1.365-0.132-2.115,0.143 c-1.432,0.526-2.452,1.846-2.512,3.342c-0.085,2.125,1.65,3.873,3.802,3.873c0.163,0,0.738,0,0.87,0h7.901 M34.161,75.779 h0.358" />
      <path fill="#472b29" d="M44.138,76.279h-3.526c-0.276,0-0.5-0.224-0.5-0.5s0.224-0.5,0.5-0.5h3.526 c1.822,0,3.305-1.446,3.305-3.224c0-1.518-1.104-2.844-2.624-3.155c-0.257-0.052-0.43-0.294-0.396-0.555 c0.018-0.135,0.03-0.273,0.03-0.413c0-1.851-1.544-3.357-3.441-3.357c-1.087,0-2.088,0.489-2.746,1.342 c-0.126,0.164-0.341,0.233-0.538,0.174c-0.198-0.059-0.34-0.234-0.355-0.44c-0.079-1.015-0.563-1.935-1.364-2.591 c-0.825-0.677-1.876-0.978-2.959-0.848c-1.639,0.196-2.992,1.436-3.291,3.013c-0.094,0.494-0.091,0.986,0.009,1.464 c0.046,0.219-0.06,0.441-0.258,0.545c-0.197,0.104-0.439,0.064-0.595-0.099c-0.426-0.449-1.003-0.696-1.627-0.696 c-1.163,0-2.134,0.886-2.21,2.018c-0.01,0.145-0.082,0.278-0.198,0.366c-0.116,0.088-0.269,0.12-0.406,0.089 c-0.636-0.138-1.234-0.097-1.836,0.124c-1.257,0.461-2.135,1.624-2.185,2.893c-0.035,0.871,0.281,1.699,0.89,2.333 c0.633,0.658,1.489,1.02,2.412,1.02h8.771c0.276,0,0.5,0.224,0.5,0.5s-0.224,0.5-0.5,0.5h-8.771 c-1.181,0-2.322-0.484-3.133-1.327c-0.8-0.832-1.214-1.921-1.169-3.066c0.066-1.668,1.208-3.192,2.839-3.791 c0.608-0.224,1.235-0.306,1.872-0.244c0.345-1.39,1.624-2.414,3.124-2.414c0.49,0,0.972,0.112,1.406,0.32 c0.009-0.239,0.036-0.479,0.082-0.72c0.379-2.001,2.087-3.573,4.154-3.82c1.361-0.16,2.676,0.217,3.712,1.068 c0.744,0.61,1.273,1.402,1.541,2.291c0.787-0.645,1.777-1.001,2.829-1.001c2.449,0,4.441,1.955,4.441,4.357 c0,0.034-0.001,0.067-0.001,0.1c1.757,0.553,2.99,2.181,2.99,4.023C48.443,74.385,46.512,76.279,44.138,76.279z M34.519,76.279 h-0.357c-0.276,0-0.5-0.224-0.5-0.5s0.224-0.5,0.5-0.5h0.357c0.276,0,0.5,0.224,0.5,0.5S34.795,76.279,34.519,76.279z" />
      <path fill="#472b29" d="M42.437,70.499c-0.018,0-0.036-0.002-0.055-0.006c-0.135-0.03-0.22-0.164-0.189-0.299 c0.037-0.164,0.094-0.324,0.169-0.477c0.604-1.221,2.269-1.669,3.708-1.003c0.126,0.058,0.181,0.207,0.122,0.332 c-0.058,0.125-0.208,0.179-0.331,0.122c-1.2-0.554-2.566-0.207-3.051,0.771c-0.058,0.118-0.102,0.241-0.129,0.365 C42.655,70.42,42.551,70.499,42.437,70.499z" />
      <g>
        <path fill="#472b29" d="M37.299,76.279h-1.103c-0.276,0-0.5-0.224-0.5-0.5s0.224-0.5,0.5-0.5h1.103c0.276,0,0.5,0.224,0.5,0.5 S37.576,76.279,37.299,76.279z" />
      </g>
    </g>
  </g>
</svg>